<svg xmlns="http://www.w3.org/2000/svg" width="256" height="256" viewBox="0 0 100 100"><rect width="100" height="100" rx="50" fill="#0074d9"></rect><path fill="#ffffff" d="M28.31 24.41L28.31 75.59L21.56 75.59L21.56 24.41L28.31 24.41ZM78.44 50.11L78.44 68.88Q75.84 72.61 71.18 74.45Q66.52 76.30 60.34 76.30L60.34 76.30Q54.08 76.30 49.23 73.36Q44.38 70.43 41.72 65.01Q39.07 59.60 39.00 52.46L39.00 52.46L39.00 48.00Q39.00 36.43 44.39 30.07Q49.79 23.70 59.56 23.70L59.56 23.70Q67.58 23.70 72.46 27.80Q77.35 31.89 78.44 39.42L78.44 39.42L71.69 39.42Q69.79 29.26 59.60 29.26L59.60 29.26Q52.81 29.26 49.31 34.02Q45.82 38.79 45.78 47.82L45.78 47.82L45.78 52.00Q45.78 60.62 49.72 65.70Q53.66 70.78 60.37 70.78L60.37 70.78Q64.17 70.78 67.02 69.93Q69.86 69.09 71.73 67.09L71.73 67.09L71.73 55.59L59.88 55.59L59.88 50.11L78.44 50.11Z"></path></svg>