<svg xmlns="http://www.w3.org/2000/svg" xml:space="preserve" width="2000" height="90" data-id="lg_xun6WiVhNzGlsjZ10v" data-version="1" viewBox="0 0 2000 90"><g data-padding="20"><g transform="translate(11.866 1.692)scale(.9624)"><path fill="#0074d9" d="M794.282-.085a45.085 45.085 0 1 0 0 90.17 45.085 45.085 0 1 0 0-90.17"/><rect width="457.703" height="64.41" x="527.828" y="-32.377" fill="none" rx="0" ry="0" transform="matrix(.99 0 0 .99 332.066 47.083)"/><path fill="#042d92" d="M866.992 24.52v40.115h-8.267V24.52Zm17.304 40.124h-7.989V40.676h-4.435v-5.841h4.435v-2.534q0-5.02 2.881-7.782 2.88-2.772 8.06-2.772 1.652 0 4.048.555l-.08 6.167q-.99-.247-2.425-.247-4.495 0-4.495 4.217v2.396h5.93v5.841h-5.93Zm26.91-30.016-.11 7.663q-1.624-.218-2.86-.218-4.526 0-5.93 3.059v19.503h-7.96V34.826h7.523l.218 3.554q2.395-4.108 6.643-4.108 1.316 0 2.475.356m28.215 30.016h-8.04q-.554-1.07-.8-2.673-2.892 3.227-7.525 3.227-4.376 0-7.257-2.534t-2.88-6.395q0-4.733 3.514-7.267 3.514-2.544 10.147-2.564h3.673v-1.713q0-2.069-1.07-3.306-1.058-1.238-3.345-1.238-2.01 0-3.148.96-1.149.97-1.149 2.644h-7.96q0-2.584 1.594-4.792 1.604-2.198 4.525-3.455t6.554-1.257q5.514 0 8.751 2.772t3.237 7.781v12.93q.02 4.237 1.18 6.415Zm-14.633-5.534q1.772 0 3.257-.782 1.485-.792 2.208-2.109v-5.128h-2.98q-5.98 0-6.365 4.138l-.03.465q0 1.485 1.05 2.456 1.05.96 2.86.96m19.583-24.284h7.464l.248 3.336q3.168-3.89 8.563-3.89 5.762 0 7.91 4.554 3.14-4.554 8.96-4.554 4.85 0 7.217 2.831 2.366 2.822 2.366 8.494v19.038h-7.99V45.627q0-2.534-.99-3.703-.99-1.178-3.504-1.178-3.574 0-4.95 3.416l.02 20.473h-7.96V45.657q0-2.594-1.02-3.752t-3.474-1.159q-3.386 0-4.9 2.812v21.077h-7.96Zm62.558 30.372q-6.554 0-10.673-4.02-4.118-4.028-4.118-10.72v-.773q0-4.495 1.733-8.029 1.732-3.544 4.92-5.455 3.178-1.92 7.256-1.92 6.12 0 9.633 3.86 3.515 3.862 3.515 10.94v3.247h-18.988q.386 2.92 2.326 4.683 1.94 1.772 4.92 1.772 4.604 0 7.188-3.336l3.92 4.376q-1.792 2.534-4.85 3.96-3.06 1.415-6.782 1.415m-.91-24.463q-2.367 0-3.842 1.594t-1.89 4.574h11.077v-.634q-.05-2.643-1.426-4.088-1.386-1.446-3.92-1.446m64.013 2.823v16.008q-2.237 2.673-6.316 4.148t-9.039 1.475q-5.207 0-9.127-2.277-3.93-2.267-6.06-6.593-2.138-4.326-2.197-10.167v-2.733q0-6 2.03-10.395 2.02-4.395 5.84-6.722 3.812-2.336 8.94-2.336 7.138 0 11.157 3.405 4.03 3.406 4.772 9.91h-8.048q-.555-3.445-2.436-5.049-1.89-1.594-5.197-1.594-4.218 0-6.416 3.168-2.207 3.168-2.237 9.425v2.564q0 6.307 2.396 9.534 2.396 3.217 7.03 3.217 4.652 0 6.642-1.98v-6.92h-7.524v-6.088Zm19.9 21.64q-6.555 0-10.673-4.02-4.118-4.028-4.118-10.72v-.773q0-4.495 1.732-8.029 1.733-3.544 4.92-5.455 3.178-1.92 7.257-1.92 6.118 0 9.633 3.86 3.514 3.862 3.514 10.94v3.247h-18.988q.386 2.92 2.327 4.683 1.94 1.772 4.92 1.772 4.604 0 7.187-3.336l3.92 4.376q-1.79 2.534-4.85 3.96-3.06 1.415-6.782 1.415m-.91-24.463q-2.367 0-3.842 1.594t-1.89 4.574h11.078v-.634q-.05-2.643-1.426-4.088-1.386-1.446-3.92-1.446m17.523-5.909h7.494l.257 3.445q3.188-4 8.564-4 4.742 0 7.058 2.782 2.307 2.782 2.367 8.326v19.256h-7.96V45.567q0-2.534-1.109-3.672-1.099-1.149-3.663-1.149-3.356 0-5.039 2.871v21.018h-7.97Zm45.5 30.372q-6.564 0-10.682-4.02-4.119-4.028-4.119-10.72v-.773q0-4.495 1.733-8.029 1.742-3.544 4.92-5.455 3.188-1.92 7.257-1.92 6.118 0 9.633 3.86 3.514 3.862 3.514 10.94v3.247h-18.988q.386 2.92 2.336 4.683 1.94 1.772 4.91 1.772 4.604 0 7.198-3.336l3.91 4.376q-1.79 2.534-4.85 3.96-3.06 1.415-6.772 1.415m-.91-24.463q-2.377 0-3.852 1.594-1.465 1.594-1.88 4.574h11.077v-.634q-.06-2.643-1.435-4.088t-3.91-1.446m34.55-6.107-.109 7.663q-1.633-.218-2.87-.218-4.515 0-5.92 3.059v19.503h-7.96V34.826h7.514l.227 3.554q2.396-4.108 6.633-4.108 1.327 0 2.485.356m28.215 30.016h-8.049q-.554-1.07-.8-2.673-2.892 3.227-7.516 3.227-4.385 0-7.266-2.534t-2.88-6.395q0-4.733 3.513-7.267 3.515-2.544 10.158-2.564h3.663v-1.713q0-2.069-1.06-3.306t-3.346-1.238q-2.01 0-3.158.96-1.138.97-1.138 2.644h-7.97q0-2.584 1.604-4.792 1.594-2.198 4.514-3.455t6.554-1.257q5.515 0 8.752 2.772t3.237 7.781v12.93q.03 4.237 1.188 6.415Zm-14.632-5.534q1.762 0 3.247-.782 1.495-.792 2.208-2.109v-5.128h-2.98q-5.98 0-6.356 4.138l-.03.465q0 1.485 1.04 2.456 1.05.96 2.87.96m21.137-31.601h7.96v7.326h5.1v5.841h-5.1v14.88q0 1.653.634 2.366.633.723 2.425.723 1.327 0 2.346-.198v6.039q-2.346.712-4.83.712-8.376 0-8.535-8.454V40.676h-4.356v-5.841h4.356Zm15.415 22.315v-.357q0-4.435 1.712-7.91 1.703-3.475 4.92-5.376 3.208-1.9 7.445-1.9 6.04 0 9.85 3.692 3.822 3.693 4.258 10.029l.06 2.04q0 6.86-3.832 11.008t-10.276 4.148-10.286-4.128q-3.85-4.138-3.85-11.246m7.97.217q0 4.247 1.592 6.495 1.594 2.247 4.574 2.247 2.89 0 4.514-2.218 1.634-2.227 1.634-7.098 0-4.158-1.634-6.445-1.623-2.287-4.574-2.287-2.92 0-4.514 2.267-1.594 2.278-1.594 7.04m42.055-15.414-.108 7.663q-1.634-.218-2.87-.218-4.516 0-5.92 3.059v19.503h-7.97V34.826h7.523l.228 3.554q2.395-4.108 6.633-4.108 1.326 0 2.484.356"/><rect width="51.006" height="57.63" x="731.176" y="-28.987" fill="none" rx="0" ry="0" transform="matrix(.99 0 0 .99 45.76 44.98)"/><path fill="#fff" d="M781.368 26.07v35.897h-4.732V26.069Zm35.154 18.026v13.167q-1.822 2.614-5.089 3.9-3.267 1.298-7.603 1.298-4.396 0-7.79-2.06-3.407-2.059-5.268-5.85-1.86-3.802-1.91-8.802v-3.138q0-8.108 3.781-12.573 3.792-4.455 10.643-4.455 5.623 0 9.048 2.871 3.426 2.871 4.188 8.148h-4.732q-1.337-7.128-8.485-7.128-4.752 0-7.207 3.336-2.455 3.346-2.475 9.682v2.93q0 6.04 2.762 9.604 2.752 3.564 7.465 3.564 2.663 0 4.663-.594 1.99-.594 3.296-1.99v-8.069h-8.306v-3.84Z"/></g><path fill="transparent" stroke="transparent" stroke-width=".998" d="M722.697.085h557.946v89.83H722.697z"/></g></svg>